<svg xmlns="http://www.w3.org/2000/svg" width="1200" height="630" viewBox="0 0 1200 630">
  <defs>
    <linearGradient id="bg" x1="0" y1="0" x2="1" y2="1">
      <stop offset="0" stop-color="#1a1f3a"/>
      <stop offset="1" stop-color="#0d1117"/>
    </linearGradient>
    <linearGradient id="shield" x1="0" y1="0" x2="0" y2="1">
      <stop offset="0" stop-color="#7c3aed"/>
      <stop offset="1" stop-color="#4338ca"/>
    </linearGradient>
  </defs>
  <rect width="1200" height="630" fill="url(#bg)"/>
  <g transform="translate(120, 175)">
    <path d="M140 0 L260 40 V160 C260 240 200 295 140 320 C80 295 20 240 20 160 V40 L140 0 Z" fill="url(#shield)"/>
    <path d="M85 165 L120 200 L195 120" stroke="white" stroke-width="18" stroke-linecap="round" stroke-linejoin="round" fill="none"/>
  </g>
  <text x="450" y="270" font-family="-apple-system, Segoe UI, Helvetica, Arial, sans-serif" font-size="76" font-weight="700" fill="#ffffff">sigstore-dotnet</text>
  <text x="450" y="335" font-family="-apple-system, Segoe UI, Helvetica, Arial, sans-serif" font-size="32" font-weight="400" fill="#a5b4fc">Managed .NET client for Sigstore</text>
  <text x="450" y="380" font-family="-apple-system, Segoe UI, Helvetica, Arial, sans-serif" font-size="24" font-weight="400" fill="#94a3b8">Bundle signing &amp; verification — pure managed, no native deps</text>
  <g transform="translate(450, 440)" font-family="-apple-system, Segoe UI, Helvetica, Arial, sans-serif" font-size="22" fill="#e2e8f0">
    <rect x="0" y="0" width="190" height="44" rx="22" fill="#1e293b" stroke="#475569"/>
    <text x="95" y="29" text-anchor="middle">.NET 8 / 9 / 10</text>
    <rect x="210" y="0" width="220" height="44" rx="22" fill="#1e293b" stroke="#475569"/>
    <text x="320" y="29" text-anchor="middle">132/132 conformance</text>
    <rect x="450" y="0" width="180" height="44" rx="22" fill="#1e293b" stroke="#475569"/>
    <text x="540" y="29" text-anchor="middle">cosign interop</text>
  </g>
  <text x="450" y="535" font-family="-apple-system, Segoe UI, Helvetica, Arial, sans-serif" font-size="20" fill="#64748b">sigstore.zimakov.net</text>
</svg>
